<svg id="Layer_1" data-name="Layer 1" xmlns="http://www.w3.org/2000/svg" viewBox="0 0 573.37 346.74"><defs><style>.cls-1{fill:#1b75bc;}.cls-2{fill:#ffce02;}.cls-3{fill:#3bba94;}.cls-4{fill:#bdbec1;}.cls-5{fill:#683917;}</style></defs><title>GIISDEC_LOGO_FINAL</title><path class="cls-1" d="M85.25,231.25v0a1.17,1.17,0,0,0-.4.73,8,8,0,0,0-.12,1.6v2.59a7.14,7.14,0,0,1-1.87.82,7.36,7.36,0,0,1-2,.32,5.8,5.8,0,0,1-2.88-.71,5,5,0,0,1-2-2,5.86,5.86,0,0,1-.7-2.87,6.42,6.42,0,0,1,.73-3.12,5,5,0,0,1,2.06-2,6.51,6.51,0,0,1,3.06-.7,9.73,9.73,0,0,1,3,.43l.24,2.56,0,0a4.12,4.12,0,0,0-3.24-1.36,3.17,3.17,0,0,0-2.56,1.08,4.41,4.41,0,0,0-.92,2.95,4.51,4.51,0,0,0,.9,3A3,3,0,0,0,81,235.67a3.93,3.93,0,0,0,1.73-.35v-2.56a3.21,3.21,0,0,0-2.35.82l0,0,.25-2.4a13.44,13.44,0,0,0,1.92.09Z"/><path class="cls-1" d="M96.16,227a3.8,3.8,0,0,0-.25,1.49v6.28a3.66,3.66,0,0,0,.25,1.45,1.79,1.79,0,0,0,.6.81v0H93v0a1.9,1.9,0,0,0,.56-.83,3.78,3.78,0,0,0,.24-1.43v-2.76H89.57v2.69a4.06,4.06,0,0,0,.24,1.5,1.75,1.75,0,0,0,.56.83v0h-3.8v0a1.86,1.86,0,0,0,.6-.83,4,4,0,0,0,.25-1.5v-6.21a4,4,0,0,0-.25-1.5,1.92,1.92,0,0,0-.6-.83v0h3.8v0a1.94,1.94,0,0,0-.55.84,3.87,3.87,0,0,0-.25,1.49v1.95h4.18v-1.95a4,4,0,0,0-.23-1.49,1.87,1.87,0,0,0-.57-.84v0h3.81v0A1.9,1.9,0,0,0,96.16,227Z"/><path class="cls-1" d="M107.8,236.07a4.16,4.16,0,0,0,.8,1v0H105v0a.86.86,0,0,0,.26-.72,3.67,3.67,0,0,0-.26-1.21l-.14-.38h-4.05l-.15.38a3.43,3.43,0,0,0-.25,1.19,1,1,0,0,0,.22.74v0h-3.3v0a4.42,4.42,0,0,0,.79-1,7.58,7.58,0,0,0,.74-1.54l2.24-6.48a2.32,2.32,0,0,0,.15-.77,1.62,1.62,0,0,0-.13-.64,1.1,1.1,0,0,0-.3-.43v0H105v0a1.22,1.22,0,0,0-.3.44,1.54,1.54,0,0,0-.13.63,2.32,2.32,0,0,0,.15.77l2.31,6.48A7.4,7.4,0,0,0,107.8,236.07Zm-5.27-6.29c-.14.48-.33,1.07-.58,1.77l-.59,1.67h3l-.58-1.67c-.26-.75-.46-1.36-.6-1.81a9.88,9.88,0,0,1-.31-1.48h-.06A11.36,11.36,0,0,1,102.53,229.78Z"/><path class="cls-1" d="M109.24,237.07a1.86,1.86,0,0,0,.6-.83,3.85,3.85,0,0,0,.25-1.5v-6.29a4,4,0,0,0-.22-1.33,1.73,1.73,0,0,0-.63-.92v0h3.57a2.49,2.49,0,0,0,.16.59,6.23,6.23,0,0,0,.49.92l2.26,3.81a23.06,23.06,0,0,1,1.45,3.11h.06a18.55,18.55,0,0,1-.25-3.24v-2.83a4.32,4.32,0,0,0-.23-1.51,1.61,1.61,0,0,0-.57-.82v0h3.63v0a1.8,1.8,0,0,0-.6.83,3.85,3.85,0,0,0-.25,1.5v6.21a3.85,3.85,0,0,0,.25,1.5,1.75,1.75,0,0,0,.6.83v0h-3.32a11.43,11.43,0,0,0-.78-1.49l-2.22-3.6a16,16,0,0,1-.91-1.69,19.17,19.17,0,0,1-.73-1.9h-.06a18.43,18.43,0,0,1,.23,1.84c0,.55,0,1.15,0,1.81v2.67a4.32,4.32,0,0,0,.23,1.51,1.57,1.57,0,0,0,.58.82v0h-3.64Z"/><path class="cls-1" d="M130.85,236.07a4.16,4.16,0,0,0,.8,1v0H128.1v0a.89.89,0,0,0,.25-.72,3.89,3.89,0,0,0-.25-1.21l-.14-.38H123.9l-.14.38a3.22,3.22,0,0,0-.25,1.19,1,1,0,0,0,.22.74v0h-3.31v0a4.71,4.71,0,0,0,.8-1,8.12,8.12,0,0,0,.73-1.54L124.2,228a2.57,2.57,0,0,0,.14-.77,1.47,1.47,0,0,0-.13-.64,1.1,1.1,0,0,0-.3-.43v0h4.17v0a1.44,1.44,0,0,0-.42,1.07,2.29,2.29,0,0,0,.14.77l2.31,6.48A7.4,7.4,0,0,0,130.85,236.07Zm-5.27-6.29c-.14.48-.33,1.07-.58,1.77l-.58,1.67h3l-.59-1.67c-.26-.75-.46-1.36-.59-1.81a8.75,8.75,0,0,1-.32-1.48h-.06A8.89,8.89,0,0,1,125.58,229.78Z"/><path class="cls-1" d="M136.23,237.07a1.78,1.78,0,0,0,.59-.83,3.84,3.84,0,0,0,.26-1.5v-6.21a3.77,3.77,0,0,0-.26-1.5,1.83,1.83,0,0,0-.59-.83v0h3.86v0a1.81,1.81,0,0,0-.59.84,3.8,3.8,0,0,0-.25,1.49v6.21a3.79,3.79,0,0,0,.25,1.5,1.78,1.78,0,0,0,.59.83v0h-3.86Z"/><path class="cls-1" d="M142,237.07a1.86,1.86,0,0,0,.6-.83,4,4,0,0,0,.25-1.5v-6.29a4,4,0,0,0-.22-1.33,1.84,1.84,0,0,0-.63-.92v0h3.57a2.09,2.09,0,0,0,.16.59,6,6,0,0,0,.48.92l2.27,3.81a23.06,23.06,0,0,1,1.45,3.11h.06a18.55,18.55,0,0,1-.25-3.24v-2.83a4.32,4.32,0,0,0-.23-1.51,1.57,1.57,0,0,0-.58-.82v0h3.64v0a1.8,1.8,0,0,0-.6.83,3.85,3.85,0,0,0-.25,1.5v6.21a3.85,3.85,0,0,0,.25,1.5,1.75,1.75,0,0,0,.6.83v0H149.2a10.46,10.46,0,0,0-.79-1.49L146.2,232a16.23,16.23,0,0,1-.92-1.69,19.34,19.34,0,0,1-.72-1.9h-.06c.11.68.19,1.3.23,1.84s.05,1.15.05,1.81v2.67a4.32,4.32,0,0,0,.23,1.51,1.61,1.61,0,0,0,.57.82v0H142Z"/><path class="cls-1" d="M162.44,228.92l0,0a2.28,2.28,0,0,0-.83-.83,2.3,2.3,0,0,0-1.22-.33h-1.18v6.84a4,4,0,0,0,.28,1.59,1.67,1.67,0,0,0,.68.86v0h-4.07v0a1.85,1.85,0,0,0,.67-.87,4,4,0,0,0,.29-1.58v-6.84h-1.2a2.27,2.27,0,0,0-1.21.33,2.2,2.2,0,0,0-.83.83l0,0,.27-2.87a17.37,17.37,0,0,0,2.15.12H160a17.49,17.49,0,0,0,2.15-.12Z"/><path class="cls-1" d="M171.59,234.1l-.44,3.13a6.46,6.46,0,0,0-.84-.11l-1.08,0h-5.55v0a1.86,1.86,0,0,0,.6-.83,3.85,3.85,0,0,0,.25-1.5v-6.21a3.79,3.79,0,0,0-.25-1.5,1.92,1.92,0,0,0-.6-.83v0h5.65a8.39,8.39,0,0,0,1.66-.12l.27,2.81,0,0a1.86,1.86,0,0,0-.91-.88,3.78,3.78,0,0,0-1.56-.29h-2.08v2.77h1.2l1.46,0,1-.09-.45,2.64h0a1.41,1.41,0,0,0-.62-.75,2.21,2.21,0,0,0-1.1-.24h-1.45v3.54h1.72a4.37,4.37,0,0,0,1.85-.38,3.26,3.26,0,0,0,1.31-1.1Z"/><path class="cls-1" d="M182.58,231.25v0a1.12,1.12,0,0,0-.39.73,7.84,7.84,0,0,0-.13,1.6v2.59a6.85,6.85,0,0,1-1.87.82,7.3,7.3,0,0,1-2,.32,5.73,5.73,0,0,1-2.87-.71,5,5,0,0,1-2-2,5.76,5.76,0,0,1-.7-2.87,6.31,6.31,0,0,1,.73-3.12,5,5,0,0,1,2-2,6.53,6.53,0,0,1,3.07-.7,9.78,9.78,0,0,1,3,.43l.23,2.56,0,0a4.12,4.12,0,0,0-3.24-1.36,3.16,3.16,0,0,0-2.55,1.08,4.36,4.36,0,0,0-.92,2.95,4.51,4.51,0,0,0,.89,3,3,3,0,0,0,2.47,1.08,3.9,3.9,0,0,0,1.73-.35v-2.56a3.17,3.17,0,0,0-2.34.82l0,0,.25-2.4a13.25,13.25,0,0,0,1.92.09Z"/><path class="cls-1" d="M193.72,236.82v0l-3.23.58a8.52,8.52,0,0,0-.8-1.74l-2.44-4.17H188a2.34,2.34,0,0,0,1.57-.47,1.83,1.83,0,0,0,.54-1.48,1.76,1.76,0,0,0-.56-1.37,2.17,2.17,0,0,0-1.55-.49l-1.1,0v7.08a4,4,0,0,0,.23,1.43,1.9,1.9,0,0,0,.55.83v0H183.9v0a1.75,1.75,0,0,0,.6-.83,3.85,3.85,0,0,0,.25-1.5v-6.27a3.71,3.71,0,0,0-.25-1.46,1.79,1.79,0,0,0-.6-.81v0h4.47a4.39,4.39,0,0,1,2.92.89,3,3,0,0,1,1.06,2.43,3.34,3.34,0,0,1-.56,2,3,3,0,0,1-1.58,1.11l1.46,2.38A4.06,4.06,0,0,0,193.72,236.82Z"/><path class="cls-1" d="M204.22,236.07a4.16,4.16,0,0,0,.8,1v0h-3.55v0a.86.86,0,0,0,.25-.72,3.62,3.62,0,0,0-.25-1.21l-.14-.38h-4.06l-.14.38a3.22,3.22,0,0,0-.25,1.19,1,1,0,0,0,.22.74v0h-3.31v0a4.42,4.42,0,0,0,.8-1,7.56,7.56,0,0,0,.73-1.54l2.25-6.48a2.57,2.57,0,0,0,.14-.77,1.47,1.47,0,0,0-.13-.64,1.1,1.1,0,0,0-.3-.43v0h4.17v0a1.44,1.44,0,0,0-.42,1.07,2.29,2.29,0,0,0,.14.77l2.31,6.48A7.93,7.93,0,0,0,204.22,236.07ZM199,229.78c-.13.48-.33,1.07-.58,1.77l-.58,1.67h3l-.59-1.67c-.26-.75-.46-1.36-.59-1.81a9.84,9.84,0,0,1-.32-1.48h-.06A8.89,8.89,0,0,1,199,229.78Z"/><path class="cls-1" d="M213.12,228.92l0,0a2.37,2.37,0,0,0-2.05-1.16h-1.18v6.84a4,4,0,0,0,.28,1.59,1.67,1.67,0,0,0,.68.86v0h-4.07v0a1.85,1.85,0,0,0,.67-.87,4,4,0,0,0,.29-1.58v-6.84h-1.19a2.37,2.37,0,0,0-2.05,1.16l0,0,.27-2.87a17.37,17.37,0,0,0,2.15.12h3.84a17.37,17.37,0,0,0,2.15-.12Z"/><path class="cls-1" d="M222.27,234.1l-.44,3.13a6.46,6.46,0,0,0-.84-.11l-1.08,0h-5.55v0a1.86,1.86,0,0,0,.6-.83,3.85,3.85,0,0,0,.25-1.5v-6.21A3.79,3.79,0,0,0,215,227a1.92,1.92,0,0,0-.6-.83v0H220a8.39,8.39,0,0,0,1.66-.12l.27,2.81,0,0A1.86,1.86,0,0,0,221,228a3.78,3.78,0,0,0-1.56-.29h-2.07v2.77h1.19l1.46,0,1-.09-.45,2.64h0a1.37,1.37,0,0,0-.62-.75,2.21,2.21,0,0,0-1.1-.24h-1.44v3.54h1.71a4.37,4.37,0,0,0,1.85-.38,3.26,3.26,0,0,0,1.31-1.1Z"/><path class="cls-1" d="M223.8,237.07a1.78,1.78,0,0,0,.59-.83,3.84,3.84,0,0,0,.26-1.5v-6.21a4,4,0,0,0-.26-1.46,1.93,1.93,0,0,0-.59-.87v0h4.56a6.12,6.12,0,0,1,2.88.65,4.61,4.61,0,0,1,1.91,1.88,6,6,0,0,1,.68,2.93,5.48,5.48,0,0,1-1.43,4.05,5.84,5.84,0,0,1-4.29,1.42H223.8Zm4.46-1.53a3,3,0,0,0,2.41-1,4.49,4.49,0,0,0,.83-2.91,4.42,4.42,0,0,0-.82-2.95,3.11,3.11,0,0,0-2.5-1H226.8v7.81Z"/><path class="cls-1" d="M239.38,237.07a1.86,1.86,0,0,0,.6-.83,3.85,3.85,0,0,0,.25-1.5v-6.21A3.79,3.79,0,0,0,240,227a1.92,1.92,0,0,0-.6-.83v0h3.87v0a1.9,1.9,0,0,0-.6.84,3.8,3.8,0,0,0-.25,1.49v6.21a3.79,3.79,0,0,0,.25,1.5,1.86,1.86,0,0,0,.6.83v0h-3.87Z"/><path class="cls-1" d="M254.92,236.82v0l-3.23.58a8.52,8.52,0,0,0-.8-1.74l-2.44-4.17h.76a2.34,2.34,0,0,0,1.57-.47,1.83,1.83,0,0,0,.54-1.48,1.79,1.79,0,0,0-.55-1.37,2.21,2.21,0,0,0-1.56-.49l-1.1,0v7.08a4,4,0,0,0,.23,1.43,1.9,1.9,0,0,0,.55.83v0H245.1v0a1.75,1.75,0,0,0,.6-.83,3.85,3.85,0,0,0,.25-1.5v-6.27a3.71,3.71,0,0,0-.25-1.46,1.79,1.79,0,0,0-.6-.81v0h4.47a4.39,4.39,0,0,1,2.92.89,3,3,0,0,1,1.06,2.43,3.34,3.34,0,0,1-.56,2,3,3,0,0,1-1.58,1.11l1.46,2.38A4.06,4.06,0,0,0,254.92,236.82Z"/><path class="cls-1" d="M257.64,236.68a5,5,0,0,1-1.95-2,6.3,6.3,0,0,1-.66-2.91,6.46,6.46,0,0,1,.7-3.09,4.89,4.89,0,0,1,2-2.06,6.27,6.27,0,0,1,3.11-.73,5.87,5.87,0,0,1,2.94.71,4.84,4.84,0,0,1,2,2,6.08,6.08,0,0,1,.7,3,6.28,6.28,0,0,1-.73,3.07,5.12,5.12,0,0,1-2.06,2.09,6.19,6.19,0,0,1-3.06.74A5.86,5.86,0,0,1,257.64,236.68Zm4.86-1.4a3.43,3.43,0,0,0,1.2-1.44,5.11,5.11,0,0,0,.43-2.16,4.72,4.72,0,0,0-.91-3.09,3.11,3.11,0,0,0-2.52-1.1,3.07,3.07,0,0,0-1.77.51,3.21,3.21,0,0,0-1.16,1.44,5.24,5.24,0,0,0-.4,2.14,4.82,4.82,0,0,0,.88,3.08,3,3,0,0,0,2.53,1.12A3.09,3.09,0,0,0,262.5,235.28Z"/><path class="cls-1" d="M268.09,237.07a1.86,1.86,0,0,0,.6-.83,3.85,3.85,0,0,0,.25-1.5v-6.29a4,4,0,0,0-.22-1.33,1.73,1.73,0,0,0-.63-.92v0h3.57a2.49,2.49,0,0,0,.16.59,6.23,6.23,0,0,0,.49.92l2.26,3.81A23.06,23.06,0,0,1,276,234.6h.06a18.55,18.55,0,0,1-.25-3.24v-2.83a4.32,4.32,0,0,0-.23-1.51,1.61,1.61,0,0,0-.57-.82v0h3.63v0a1.8,1.8,0,0,0-.6.83,4,4,0,0,0-.25,1.5v6.21a4,4,0,0,0,.25,1.5,1.75,1.75,0,0,0,.6.83v0h-3.32a11.43,11.43,0,0,0-.78-1.49l-2.22-3.6a16,16,0,0,1-.91-1.69c-.24-.53-.48-1.17-.73-1.9h-.06a18.43,18.43,0,0,1,.23,1.84c0,.55.05,1.15.05,1.81v2.67a4.32,4.32,0,0,0,.23,1.51,1.57,1.57,0,0,0,.58.82v0h-3.64Z"/><path class="cls-1" d="M286.21,237a3.34,3.34,0,0,1-1.5-1.16,3.06,3.06,0,0,1-.53-1.78,3.14,3.14,0,0,1,.46-1.62,2.8,2.8,0,0,1,1.19-1.13v0a2.37,2.37,0,0,1-.93-.9,2.34,2.34,0,0,1-.34-1.24,2.83,2.83,0,0,1,.51-1.68,3.2,3.2,0,0,1,1.42-1.12,5.3,5.3,0,0,1,2.09-.39,9,9,0,0,1,2.85.47l.23,2.34,0,0a2.73,2.73,0,0,0-1.12-.84,3.9,3.9,0,0,0-1.68-.36,2.47,2.47,0,0,0-1.48.4,1.18,1.18,0,0,0-.56,1,1.35,1.35,0,0,0,.56,1.15,2.49,2.49,0,0,0,1.5.41l3.29,0a3.78,3.78,0,0,0,1.14-.17,2.1,2.1,0,0,0,.84-.47h0l-.33,2.2h-1.05V234a3.11,3.11,0,0,1-2,3,5.73,5.73,0,0,1-2.28.42A5.93,5.93,0,0,1,286.21,237Zm4-1.71a1.71,1.71,0,0,0,.59-1.39v-1.81h-1.86a3,3,0,0,0-1.81.48,1.55,1.55,0,0,0-.67,1.33,1.74,1.74,0,0,0,.58,1.39,2.76,2.76,0,0,0,3.17,0Z"/><path class="cls-1" d="M300.54,237.17a4.15,4.15,0,0,1-1.31-.46l-.27-2.64,0,0a4.2,4.2,0,0,0,1.43,1.27,3.76,3.76,0,0,0,1.7.38q2,0,1.95-1.41a1.38,1.38,0,0,0-.27-.86,1.91,1.91,0,0,0-.66-.57,11.09,11.09,0,0,0-1.1-.51,9.58,9.58,0,0,1-1.5-.73,3,3,0,0,1-1-1,3.07,3.07,0,0,1-.41-1.66,2.66,2.66,0,0,1,.45-1.49,3.06,3.06,0,0,1,1.3-1.09,4.5,4.5,0,0,1,2-.41,9.82,9.82,0,0,1,2.47.33l.21,2.58h0a2.69,2.69,0,0,0-1.1-1,3.29,3.29,0,0,0-1.39-.28c-1.2,0-1.81.4-1.81,1.21a1.07,1.07,0,0,0,.25.72,1.88,1.88,0,0,0,.61.5c.25.13.59.29,1,.48a11.15,11.15,0,0,1,1.58.77,3.26,3.26,0,0,1,1.05,1.07,3.29,3.29,0,0,1,.44,1.79,3,3,0,0,1-1.79,2.78,4.94,4.94,0,0,1-2.17.43A8.7,8.7,0,0,1,300.54,237.17Z"/><path class="cls-1" d="M315.47,228.92l0,0a2.25,2.25,0,0,0-.82-.83,2.33,2.33,0,0,0-1.22-.33h-1.18v6.84a4.06,4.06,0,0,0,.27,1.59,1.68,1.68,0,0,0,.69.86v0H309.1v0a1.79,1.79,0,0,0,.67-.87,3.78,3.78,0,0,0,.29-1.58v-6.84h-1.19a2.3,2.3,0,0,0-1.22.33,2.28,2.28,0,0,0-.83.83l0,0,.27-2.87a17.49,17.49,0,0,0,2.15.12h3.84a17.54,17.54,0,0,0,2.16-.12Z"/><path class="cls-1" d="M324.62,234.1l-.44,3.13a6.46,6.46,0,0,0-.84-.11l-1.08,0h-5.55v0a1.86,1.86,0,0,0,.6-.83,3.85,3.85,0,0,0,.25-1.5v-6.21a3.79,3.79,0,0,0-.25-1.5,1.92,1.92,0,0,0-.6-.83v0h5.65a8.58,8.58,0,0,0,1.67-.12l.26,2.81,0,0a1.86,1.86,0,0,0-.91-.88,3.78,3.78,0,0,0-1.56-.29h-2.07v2.77h1.19l1.47,0,1-.09-.46,2.64h0a1.37,1.37,0,0,0-.62-.75,2.21,2.21,0,0,0-1.1-.24h-1.44v3.54h1.71a4.37,4.37,0,0,0,1.85-.38,3.19,3.19,0,0,0,1.31-1.1Z"/><path class="cls-1" d="M334.06,234.1l-.44,3.13a6.94,6.94,0,0,0-.84-.11l-1.08,0h-5.55v0a1.86,1.86,0,0,0,.6-.83,4,4,0,0,0,.25-1.5v-6.21a4,4,0,0,0-.25-1.5,1.92,1.92,0,0,0-.6-.83v0h5.64a8.51,8.51,0,0,0,1.67-.12l.27,2.81,0,0a1.9,1.9,0,0,0-.91-.88,3.78,3.78,0,0,0-1.56-.29h-2.08v2.77h1.2l1.46,0,1-.09-.46,2.64h0a1.35,1.35,0,0,0-.61-.75,2.21,2.21,0,0,0-1.1-.24h-1.45v3.54h1.72a4.32,4.32,0,0,0,1.84-.38,3.29,3.29,0,0,0,1.32-1.1Z"/><path class="cls-1" d="M342.12,237.12l-.95,0h-5.59v0a1.86,1.86,0,0,0,.6-.83,3.85,3.85,0,0,0,.25-1.5v-6.27a3.71,3.71,0,0,0-.25-1.46,1.79,1.79,0,0,0-.6-.81v0h3.86v0a1.82,1.82,0,0,0-.6.84,3.8,3.8,0,0,0-.25,1.49v7h1.55a4.57,4.57,0,0,0,1.84-.35,3.11,3.11,0,0,0,1.31-1.07l0,0-.41,3.1A6.21,6.21,0,0,0,342.12,237.12Z"/><path class="cls-1" d="M75.53,253.1a1.9,1.9,0,0,0,.6-.84,4,4,0,0,0,.25-1.49v-6.21a4,4,0,0,0-.26-1.47,1.82,1.82,0,0,0-.59-.86v0h4.56a6.12,6.12,0,0,1,2.88.65,4.56,4.56,0,0,1,1.91,1.88,5.88,5.88,0,0,1,.68,2.93,5.46,5.46,0,0,1-1.43,4,5.83,5.83,0,0,1-4.29,1.43H75.53ZM80,251.57a2.92,2.92,0,0,0,2.41-1,4.42,4.42,0,0,0,.83-2.9,4.46,4.46,0,0,0-.81-2.95,3.11,3.11,0,0,0-2.5-1H78.53v7.82Z"/><path class="cls-1" d="M95.09,250.12l-.44,3.13c-.29-.05-.57-.08-.84-.1l-1.08,0H87.18v0a1.9,1.9,0,0,0,.6-.84,3.8,3.8,0,0,0,.25-1.49v-6.21a3.79,3.79,0,0,0-.25-1.5,1.86,1.86,0,0,0-.6-.83v0h5.65a7.55,7.55,0,0,0,1.66-.13l.27,2.82h0a1.84,1.84,0,0,0-.91-.87,3.78,3.78,0,0,0-1.56-.29H90.19v2.77h1.19c.66,0,1.15,0,1.46,0s.65,0,1-.08L93.38,249h0a1.36,1.36,0,0,0-.62-.76,2.33,2.33,0,0,0-1.1-.23H90.19v3.54H91.9a4.37,4.37,0,0,0,1.85-.38,3.26,3.26,0,0,0,1.31-1.1Z"/><path class="cls-1" d="M99.23,253.1a1.36,1.36,0,0,0,.25-.45,2.06,2.06,0,0,0,.09-.64,3.5,3.5,0,0,0-.2-1.08L97,244.34a6.49,6.49,0,0,0-.6-1.21,3.3,3.3,0,0,0-.83-.9v0h3.68v0a1.28,1.28,0,0,0-.27.86,2.06,2.06,0,0,0,.11.65l1.39,4a18.41,18.41,0,0,1,.82,3.23h.06c.09-.55.22-1.12.38-1.73s.3-1.1.44-1.51l1.32-3.95a2.64,2.64,0,0,0,.14-.8,1.11,1.11,0,0,0-.22-.74v0h3.36v0a3.55,3.55,0,0,0-1.32,2l-2.36,6.73a3.52,3.52,0,0,0-.2,1.1,1.47,1.47,0,0,0,.35,1.07v0h-4Z"/><path class="cls-1" d="M115.45,250.12l-.44,3.13c-.29-.05-.57-.08-.84-.1l-1.08,0h-5.55v0a1.9,1.9,0,0,0,.6-.84,3.8,3.8,0,0,0,.25-1.49v-6.21a3.79,3.79,0,0,0-.25-1.5,1.86,1.86,0,0,0-.6-.83v0h5.65a7.71,7.71,0,0,0,1.67-.13l.26,2.82h0a1.84,1.84,0,0,0-.91-.87,3.78,3.78,0,0,0-1.56-.29h-2.07v2.77h1.19q1,0,1.47,0c.31,0,.64,0,1-.08l-.46,2.64h0a1.36,1.36,0,0,0-.62-.76,2.33,2.33,0,0,0-1.1-.23h-1.44v3.54h1.71a4.37,4.37,0,0,0,1.85-.38,3.19,3.19,0,0,0,1.31-1.1Z"/><path class="cls-1" d="M123.51,253.15l-1,0H117v0a1.9,1.9,0,0,0,.6-.84,4,4,0,0,0,.25-1.49v-6.28a3.85,3.85,0,0,0-.25-1.45,1.79,1.79,0,0,0-.6-.81v0h3.85v0a1.86,1.86,0,0,0-.6.83,4,4,0,0,0-.25,1.5v7h1.56a4.47,4.47,0,0,0,1.84-.35,3.14,3.14,0,0,0,1.3-1.06l0,0-.41,3.09C124,253.2,123.76,253.17,123.51,253.15Z"/><path class="cls-1" d="M127.78,252.7a4.93,4.93,0,0,1-1.94-2,6.18,6.18,0,0,1-.67-2.91,6.45,6.45,0,0,1,.7-3.08,4.89,4.89,0,0,1,2-2.06,6.31,6.31,0,0,1,3.12-.74,6,6,0,0,1,2.94.71,5,5,0,0,1,2,2,6,6,0,0,1,.7,2.95,6.43,6.43,0,0,1-.73,3.08,5.16,5.16,0,0,1-2.06,2.08,6.14,6.14,0,0,1-3.06.74A5.79,5.79,0,0,1,127.78,252.7Zm4.87-1.4a3.22,3.22,0,0,0,1.19-1.44,5,5,0,0,0,.44-2.16,4.68,4.68,0,0,0-.92-3.08,3.39,3.39,0,0,0-4.29-.59,3.3,3.3,0,0,0-1.16,1.43,5.46,5.46,0,0,0-.4,2.15,4.83,4.83,0,0,0,.89,3.08,3.31,3.31,0,0,0,4.25.61Z"/><path class="cls-1" d="M145.46,243.13a3.32,3.32,0,0,1,1,2.62,3.67,3.67,0,0,1-1,2.83,4.17,4.17,0,0,1-2.94.95h-1.29v1.3a3.9,3.9,0,0,0,.25,1.46,1.79,1.79,0,0,0,.6.81v0h-3.85v0a1.9,1.9,0,0,0,.6-.84,4,4,0,0,0,.25-1.49v-6.28a3.85,3.85,0,0,0-.25-1.45,1.79,1.79,0,0,0-.6-.81v0h4.29A4.26,4.26,0,0,1,145.46,243.13Zm-1.2,2.73a1.84,1.84,0,0,0-2.09-2.11h-.93V248l.93,0A1.85,1.85,0,0,0,144.26,245.86Z"/><path class="cls-1" d="M147.36,253.1a3.64,3.64,0,0,0,.94-2.28l.41-6.11,0-.29a4,4,0,0,0-.21-1.31,1.61,1.61,0,0,0-.66-.88l0,0h3.6a.57.57,0,0,0-.11.38,2.25,2.25,0,0,0,.36,1l1.56,2.67a7.37,7.37,0,0,1,1,2.6h.07a6,6,0,0,1,.41-1.19c.18-.36.42-.83.75-1.41l1.54-2.72a2.32,2.32,0,0,0,.35-1,.53.53,0,0,0-.11-.36h3.63v0a1.7,1.7,0,0,0-.72,1,4,4,0,0,0-.19,1.47l.49,6.11a4.6,4.6,0,0,0,.29,1.25,3,3,0,0,0,.64,1l0,0h-3.6l0,0a1.44,1.44,0,0,0,.38-.63,2.89,2.89,0,0,0,.16-1,2.16,2.16,0,0,0,0-.31l-.25-3.26c0-.36,0-.64,0-.85a13.62,13.62,0,0,1,.13-1.85h-.07a10.17,10.17,0,0,1-.52,1.36,13.05,13.05,0,0,1-.69,1.31l-1.74,3a4.7,4.7,0,0,0-.74,1.9h-.13a4.8,4.8,0,0,0-.78-1.89l-1.87-3a8.81,8.81,0,0,1-.66-1.24,12.81,12.81,0,0,1-.48-1.41h-.06c.07.73.11,1.39.11,2a6.9,6.9,0,0,1,0,.74l-.17,3.26a3.79,3.79,0,0,0,.12,1.21,1.56,1.56,0,0,0,.4.74v0h-3.46Z"/><path class="cls-1" d="M170.76,250.12l-.44,3.13c-.3-.05-.58-.08-.84-.1l-1.08,0h-5.55v0a1.9,1.9,0,0,0,.6-.84,4,4,0,0,0,.25-1.49v-6.21a4,4,0,0,0-.25-1.5,1.86,1.86,0,0,0-.6-.83v0h5.64a7.65,7.65,0,0,0,1.67-.13l.27,2.82h0a1.86,1.86,0,0,0-.92-.87,3.7,3.7,0,0,0-1.55-.29h-2.08v2.77h1.2c.66,0,1.15,0,1.46,0s.64,0,1-.08L169,249h0a1.34,1.34,0,0,0-.61-.76,2.33,2.33,0,0,0-1.1-.23h-1.45v3.54h1.72a4.32,4.32,0,0,0,1.84-.38,3.29,3.29,0,0,0,1.32-1.1Z"/><path class="cls-1" d="M172.28,253.1a1.9,1.9,0,0,0,.6-.84,3.8,3.8,0,0,0,.25-1.49v-6.29a4,4,0,0,0-.22-1.33,1.69,1.69,0,0,0-.63-.92v0h3.57a2.62,2.62,0,0,0,.16.59,6.78,6.78,0,0,0,.49.92l2.26,3.8a23.9,23.9,0,0,1,1.45,3.12h.06a18.71,18.71,0,0,1-.25-3.24v-2.83a4.32,4.32,0,0,0-.23-1.51,1.61,1.61,0,0,0-.57-.82v0h3.63v0a1.75,1.75,0,0,0-.6.83,3.85,3.85,0,0,0-.25,1.5v6.21a3.85,3.85,0,0,0,.25,1.5,1.8,1.8,0,0,0,.6.83v0h-3.32a12.16,12.16,0,0,0-.78-1.5l-2.22-3.6a14.26,14.26,0,0,1-.91-1.69,18.91,18.91,0,0,1-.73-1.89h-.06a18.07,18.07,0,0,1,.23,1.84c0,.54.05,1.15.05,1.81v2.67a4.32,4.32,0,0,0,.23,1.51,1.57,1.57,0,0,0,.58.82v0h-3.64Z"/><path class="cls-1" d="M192.77,245l0,0a2.23,2.23,0,0,0-.83-.84,2.27,2.27,0,0,0-1.21-.33h-1.18v6.84a4.14,4.14,0,0,0,.27,1.6,1.72,1.72,0,0,0,.69.86v0H186.4v0a1.84,1.84,0,0,0,.67-.88,3.75,3.75,0,0,0,.29-1.58V243.8h-1.19a2.35,2.35,0,0,0-2,1.17l0,0,.27-2.88a15.62,15.62,0,0,0,2.15.13h3.84a15.42,15.42,0,0,0,2.15-.13Z"/><path class="cls-1" d="M200.32,252.63a5,5,0,0,1-1.93-2,6.61,6.61,0,0,1,.05-5.94,4.93,4.93,0,0,1,2.07-2,6.57,6.57,0,0,1,3.11-.7,9.81,9.81,0,0,1,2.77.39l.25,2.72,0,0a3,3,0,0,0-1.27-1.1,3.85,3.85,0,0,0-1.73-.38,3.33,3.33,0,0,0-2.61,1.06,4.19,4.19,0,0,0-.95,2.89,4.7,4.7,0,0,0,.88,3,2.92,2.92,0,0,0,2.47,1.14,4.28,4.28,0,0,0,2-.45,4.72,4.72,0,0,0,1.49-1.32l0,0-.38,2.82a10.19,10.19,0,0,1-3.34.59A5.69,5.69,0,0,1,200.32,252.63Z"/><path class="cls-1" d="M210.48,252.7a4.86,4.86,0,0,1-1.94-2,6.18,6.18,0,0,1-.67-2.91,6.45,6.45,0,0,1,.7-3.08,4.84,4.84,0,0,1,2-2.06,6.3,6.3,0,0,1,3.11-.74,6,6,0,0,1,2.94.71,5,5,0,0,1,2,2,6.15,6.15,0,0,1,.7,2.95,6.43,6.43,0,0,1-.73,3.08,5.12,5.12,0,0,1-2.07,2.08,6.07,6.07,0,0,1-3.05.74A5.77,5.77,0,0,1,210.48,252.7Zm4.86-1.4a3.31,3.31,0,0,0,1.2-1.44,5,5,0,0,0,.43-2.16,4.68,4.68,0,0,0-.91-3.08,3.39,3.39,0,0,0-4.29-.59,3.24,3.24,0,0,0-1.16,1.43,5.46,5.46,0,0,0-.4,2.15,4.82,4.82,0,0,0,.88,3.08,3,3,0,0,0,2.53,1.12A3,3,0,0,0,215.34,251.3Z"/><path class="cls-1" d="M230.75,252.84v0l-3.23.59a8.32,8.32,0,0,0-.8-1.75l-2.43-4.17H225a2.32,2.32,0,0,0,1.57-.46,1.85,1.85,0,0,0,.54-1.48,1.78,1.78,0,0,0-.55-1.37,2.17,2.17,0,0,0-1.56-.49h-1.1v7.08a4,4,0,0,0,.23,1.44,2,2,0,0,0,.56.83v0h-3.79v0a1.73,1.73,0,0,0,.59-.83,3.85,3.85,0,0,0,.25-1.5v-6.28a3.66,3.66,0,0,0-.25-1.45,1.71,1.71,0,0,0-.59-.81v0h4.46a4.38,4.38,0,0,1,2.93.89,3,3,0,0,1,1,2.43,3.38,3.38,0,0,1-.56,2,3,3,0,0,1-1.58,1.11L228.7,251A4,4,0,0,0,230.75,252.84Z"/><path class="cls-1" d="M238.55,243.13a3.32,3.32,0,0,1,1,2.62,3.67,3.67,0,0,1-1,2.83,4.17,4.17,0,0,1-2.94.95h-1.29v1.3a3.9,3.9,0,0,0,.25,1.46,1.79,1.79,0,0,0,.6.81v0h-3.85v0a1.9,1.9,0,0,0,.6-.84,4,4,0,0,0,.25-1.49v-6.28a3.85,3.85,0,0,0-.25-1.45,1.79,1.79,0,0,0-.6-.81v0h4.29A4.24,4.24,0,0,1,238.55,243.13Zm-1.2,2.73a1.84,1.84,0,0,0-2.09-2.11h-.93V248l.93,0A1.85,1.85,0,0,0,237.35,245.86Z"/><path class="cls-1" d="M243.36,252.7a4.86,4.86,0,0,1-1.94-2,6.18,6.18,0,0,1-.67-2.91,6.45,6.45,0,0,1,.7-3.08,4.84,4.84,0,0,1,2-2.06,6.3,6.3,0,0,1,3.11-.74,6,6,0,0,1,2.94.71,5,5,0,0,1,2,2,6.15,6.15,0,0,1,.7,2.95,6.43,6.43,0,0,1-.73,3.08,5.16,5.16,0,0,1-2.06,2.08,6.14,6.14,0,0,1-3.06.74A5.77,5.77,0,0,1,243.36,252.7Zm4.87-1.4a3.36,3.36,0,0,0,1.19-1.44,5,5,0,0,0,.43-2.16,4.68,4.68,0,0,0-.91-3.08,3.39,3.39,0,0,0-4.29-.59,3.3,3.3,0,0,0-1.16,1.43,5.46,5.46,0,0,0-.4,2.15,4.88,4.88,0,0,0,.88,3.08,3.33,3.33,0,0,0,4.26.61Z"/><path class="cls-1" d="M263.63,252.84v0l-3.22.59a8.9,8.9,0,0,0-.81-1.75l-2.43-4.17h.75a2.32,2.32,0,0,0,1.57-.46,1.85,1.85,0,0,0,.54-1.48,1.78,1.78,0,0,0-.55-1.37,2.17,2.17,0,0,0-1.56-.49h-1.1v7.08a3.8,3.8,0,0,0,.24,1.44,1.87,1.87,0,0,0,.55.83v0h-3.79v0a1.73,1.73,0,0,0,.59-.83,3.84,3.84,0,0,0,.26-1.5v-6.28a3.65,3.65,0,0,0-.26-1.45,1.71,1.71,0,0,0-.59-.81v0h4.46a4.38,4.38,0,0,1,2.93.89,3,3,0,0,1,1.05,2.43,3.38,3.38,0,0,1-.56,2,3,3,0,0,1-1.58,1.11l1.46,2.37A4,4,0,0,0,263.63,252.84Z"/><path class="cls-1" d="M274.13,252.1a4.66,4.66,0,0,0,.8,1v0h-3.55v0a.87.87,0,0,0,.25-.73,3.67,3.67,0,0,0-.25-1.21l-.14-.38h-4.06l-.14.38a3.27,3.27,0,0,0-.25,1.2,1,1,0,0,0,.22.74v0h-3.3v0a4.72,4.72,0,0,0,.79-1,7.82,7.82,0,0,0,.73-1.54l2.25-6.48a2.29,2.29,0,0,0,.14-.77,1.67,1.67,0,0,0-.12-.65,1.3,1.3,0,0,0-.3-.42v0h4.16v0a1.29,1.29,0,0,0-.29.43,1.47,1.47,0,0,0-.13.64,2.57,2.57,0,0,0,.14.77l2.31,6.48A8.21,8.21,0,0,0,274.13,252.1Zm-5.26-6.29c-.14.47-.34,1.06-.59,1.77l-.58,1.66h3l-.58-1.66c-.26-.76-.46-1.36-.6-1.81a9,9,0,0,1-.31-1.48h-.07A10.23,10.23,0,0,1,268.87,245.81Z"/><path class="cls-1" d="M283,245l0,0a2.27,2.27,0,0,0-.82-.84,2.33,2.33,0,0,0-1.22-.33h-1.18v6.84a4.14,4.14,0,0,0,.27,1.6,1.72,1.72,0,0,0,.69.86v0h-4.08v0a1.78,1.78,0,0,0,.67-.88,3.75,3.75,0,0,0,.29-1.58V243.8h-1.19a2.35,2.35,0,0,0-2.05,1.17l0,0,.27-2.88a15.62,15.62,0,0,0,2.15.13h3.84a15.67,15.67,0,0,0,2.16-.13Z"/><path class="cls-1" d="M284.27,253.1a1.9,1.9,0,0,0,.6-.84,3.8,3.8,0,0,0,.25-1.49v-6.21a3.79,3.79,0,0,0-.25-1.5,1.86,1.86,0,0,0-.6-.83v0h3.87v0a1.78,1.78,0,0,0-.59.83,3.84,3.84,0,0,0-.26,1.5v6.21a3.77,3.77,0,0,0,.26,1.5,1.83,1.83,0,0,0,.59.83v0h-3.87Z"/><path class="cls-1" d="M292.37,252.7a4.93,4.93,0,0,1-1.94-2,6.18,6.18,0,0,1-.67-2.91,6.57,6.57,0,0,1,.7-3.08,4.89,4.89,0,0,1,2-2.06,6.31,6.31,0,0,1,3.12-.74,6,6,0,0,1,2.94.71,4.93,4.93,0,0,1,2,2,6,6,0,0,1,.7,2.95,6.32,6.32,0,0,1-.73,3.08,5.16,5.16,0,0,1-2.06,2.08,6.14,6.14,0,0,1-3.06.74A5.79,5.79,0,0,1,292.37,252.7Zm4.87-1.4a3.22,3.22,0,0,0,1.19-1.44,5,5,0,0,0,.44-2.16,4.73,4.73,0,0,0-.91-3.08,3.41,3.41,0,0,0-4.3-.59,3.22,3.22,0,0,0-1.15,1.43,5.29,5.29,0,0,0-.4,2.15,4.82,4.82,0,0,0,.88,3.08,3.31,3.31,0,0,0,4.25.61Z"/><path class="cls-1" d="M302.83,253.1a1.9,1.9,0,0,0,.6-.84,4,4,0,0,0,.25-1.49v-6.29a4,4,0,0,0-.22-1.33,1.8,1.8,0,0,0-.63-.92v0h3.57a2.18,2.18,0,0,0,.16.59,6.46,6.46,0,0,0,.48.92l2.27,3.8a23.9,23.9,0,0,1,1.45,3.12h.06a18.71,18.71,0,0,1-.25-3.24v-2.83a4.32,4.32,0,0,0-.23-1.51,1.57,1.57,0,0,0-.58-.82v0h3.64v0a1.75,1.75,0,0,0-.6.83,3.85,3.85,0,0,0-.25,1.5v6.21a3.85,3.85,0,0,0,.25,1.5,1.8,1.8,0,0,0,.6.83v0h-3.32a11.09,11.09,0,0,0-.79-1.5l-2.21-3.6a14.42,14.42,0,0,1-.92-1.69,19.07,19.07,0,0,1-.72-1.89h-.06c.11.68.19,1.29.23,1.84s.05,1.15.05,1.81v2.67a4.32,4.32,0,0,0,.23,1.51,1.61,1.61,0,0,0,.57.82v0h-3.63Z"/><path class="cls-1" d="M117.88,186.86V187a5.11,5.11,0,0,0-1.8,3.3,35.47,35.47,0,0,0-.57,7.33v11.85a33,33,0,0,1-8.55,3.74,33.62,33.62,0,0,1-9.27,1.43,26.38,26.38,0,0,1-13.14-3.23,22.84,22.84,0,0,1-8.94-9,26.58,26.58,0,0,1-3.2-13.14,29,29,0,0,1,3.34-14.22,22.61,22.61,0,0,1,9.38-9.23,29.48,29.48,0,0,1,14-3.2,45.52,45.52,0,0,1,13.65,1.94l1.07,11.71-.14.07q-5.53-6.18-14.79-6.18c-5,0-8.87,1.65-11.68,4.92S83,182.88,83,188.58s1.37,10.2,4.1,13.5,6.48,5,11.27,5a18.5,18.5,0,0,0,7.9-1.58V193.75q-7.25.15-10.7,3.74l-.14-.08,1.15-11a59.23,59.23,0,0,0,8.76.43Z"/><path class="cls-1" d="M123.33,213.43a8.34,8.34,0,0,0,2.73-3.81,17.53,17.53,0,0,0,1.15-6.82V174.43a17.57,17.57,0,0,0-1.15-6.86,8.36,8.36,0,0,0-2.73-3.77v-.14H141v.14a8.49,8.49,0,0,0-2.73,3.81,17.75,17.75,0,0,0-1.15,6.82V202.8a17.72,17.72,0,0,0,1.15,6.86,8.45,8.45,0,0,0,2.73,3.77v.14H123.33Z"/><path class="cls-1" d="M148.41,213.43a8.34,8.34,0,0,0,2.73-3.81,17.53,17.53,0,0,0,1.15-6.82V174.43a17.57,17.57,0,0,0-1.15-6.86,8.36,8.36,0,0,0-2.73-3.77v-.14h17.67v.14a8.49,8.49,0,0,0-2.73,3.81,17.75,17.75,0,0,0-1.15,6.82V202.8a17.72,17.72,0,0,0,1.15,6.86,8.45,8.45,0,0,0,2.73,3.77v.14H148.41Z"/><path class="cls-1" d="M179.93,213.9a19.27,19.27,0,0,1-6-2.12l-1.22-12.07.14-.07a19.16,19.16,0,0,0,6.5,5.78,17,17,0,0,0,7.8,1.76q8.9,0,8.9-6.46a6.29,6.29,0,0,0-1.22-3.92,9.55,9.55,0,0,0-3.05-2.62,53.15,53.15,0,0,0-5-2.3,47,47,0,0,1-6.86-3.33,13.46,13.46,0,0,1-6.36-12.18,12.21,12.21,0,0,1,2.05-6.79,14.31,14.31,0,0,1,5.92-5,21.29,21.29,0,0,1,9.27-1.86,45.13,45.13,0,0,1,11.28,1.5L203,176h-.14a12.09,12.09,0,0,0-5-4.59,15,15,0,0,0-6.35-1.3q-8.26,0-8.26,5.53a5.07,5.07,0,0,0,1.11,3.31,9.08,9.08,0,0,0,2.8,2.26q1.69.9,4.78,2.19a50.74,50.74,0,0,1,7.18,3.52A14.4,14.4,0,0,1,206,200a13.92,13.92,0,0,1-2,7.47,14.06,14.06,0,0,1-6.14,5.24,22.94,22.94,0,0,1-9.92,1.94A39.84,39.84,0,0,1,179.93,213.9Z"/><path class="cls-1" d="M211.82,213.43a8.49,8.49,0,0,0,2.73-3.81,17.73,17.73,0,0,0,1.14-6.82V174.43a17.8,17.8,0,0,0-1.18-6.68,8.45,8.45,0,0,0-2.69-3.95v-.14h20.82a27.77,27.77,0,0,1,13.18,3,21,21,0,0,1,8.73,8.58,27.28,27.28,0,0,1,3.09,13.36q0,12-6.54,18.49t-19.6,6.5H211.82Zm20.39-7q7.18,0,11-4.59T247,188.58q0-9.12-3.74-13.47t-11.42-4.34h-6.32v35.69Z"/><path class="cls-1" d="M299.8,199.86l-2,14.29a32.37,32.37,0,0,0-3.84-.47c-1.22-.07-2.86-.11-4.92-.11H263.68v-.14a8.49,8.49,0,0,0,2.73-3.81,17.71,17.71,0,0,0,1.15-6.82V174.43a17.76,17.76,0,0,0-1.15-6.86,8.51,8.51,0,0,0-2.73-3.77v-.14h25.78a36.38,36.38,0,0,0,7.61-.58l1.23,12.86-.15.07a8.32,8.32,0,0,0-4.16-4,16.87,16.87,0,0,0-7.11-1.33H277.4v12.64h5.45q4.53,0,6.68-.11t4.53-.39L292,194.9h-.14a6.18,6.18,0,0,0-2.8-3.45,10.4,10.4,0,0,0-5-1.07h-6.6v16.16h7.82a19.73,19.73,0,0,0,8.44-1.73,14.69,14.69,0,0,0,6-5Z"/><path class="cls-1" d="M317.18,211.31a22.64,22.64,0,0,1-8.83-9.19A30.19,30.19,0,0,1,308.6,175a22.65,22.65,0,0,1,9.44-9.16,30.26,30.26,0,0,1,14.23-3.2,44.49,44.49,0,0,1,12.64,1.8l1.15,12.42-.15.08a13.83,13.83,0,0,0-5.78-5,18.24,18.24,0,0,0-7.94-1.73c-5,0-9,1.62-11.88,4.85S316,182.67,316,188.22s1.33,10.2,4,13.65,6.43,5.17,11.31,5.17a19.45,19.45,0,0,0,9.34-2,21.38,21.38,0,0,0,6.82-6l.14.07-1.72,12.85a45.87,45.87,0,0,1-15.3,2.73A26.08,26.08,0,0,1,317.18,211.31Z"/><path class="cls-2" d="M438.22,111.56l-4.46,4.54-57.88,58.81a22.58,22.58,0,0,1-1.31,12.15c-1,2.45-2.86,4.32-4.23,6.76-2.06,3.7-2.36,8.56-3.34,12.61l78.39-68.11,10.4-9Z"/><path class="cls-3" d="M464.91,141.23,447.2,155.47l-86.94,69.91c.71,4.81,3.37,9.55,4.36,14.51l85.93-58.69,29.78-20.34Z"/><path class="cls-4" d="M408.27,85.2l-26.92,34.6L371.07,133c-1.18,3-1,12.67-.23,17.2.28,1.6,2.3,4.13,2.42,6.47s-1.32,3.87-1.89,5.94l39.37-43.17,17.05-18.7Z"/><path class="cls-4" d="M369.49,114.3c-.67,4.82-4.5,10.51,1.65,13.75a1.46,1.46,0,0,0-.07.19L381.35,115C377.18,114.9,373.15,114.66,369.49,114.3Z"/><path class="cls-5" d="M488,172.59l-38.1,23.65-81.32,50.48c4.62,4.45,3.82,12.2-5.77,12.12,2.57.9,5.05,1.83,7.47,2.71L450.67,220,501,194Z"/><path class="cls-5" d="M395.19,258.67c5.86-3,12.93-5,19.33-7.3,7.93-2.85,16.44-9.21,25.21-12,7.29-2.28,15.29.43,20.39-4.52,5.26-5.11,3.21-4.24-.1-8.44l-.85-1.05-74.7,35.11A19.32,19.32,0,0,0,395.19,258.67Z"/></svg>